<svg width="40" height="24" viewBox="0 0 40 24" xmlns="http://www.w3.org/2000/svg">
  <rect width="40" height="24" rx="4" fill="#1A1F71"/>
  <path d="M16.3 8.5h-2.4l-1.5 7h2.4l1.5-7zm6.8 0h-2.2l-3.5 7h2.4l.6-1.4h3.1l.3 1.4h2.1l-2.8-7zm-1.9 4.2l1.2-3.1.7 3.1h-1.9zm-4.8-4.2c-.4 0-1.1.2-1.7.5l-.3-1.7c.6-.3 1.4-.5 2.2-.5 2.3 0 3.9 1.2 3.9 2.9 0 1.3-.7 2-2.9 3.1-1.3.7-2.1 1.1-2.1 1.8 0 .5.6.9 1.8.9.8 0 1.3-.2 1.7-.3l.3 1.6c-.4.2-1.1.3-1.9.3-2.5 0-4.2-1.3-4.2-3.1 0-1.2.9-2.1 3.1-3.3 1.3-.7 2-.9 2-1.7 0-.6-.7-1.1-1.9-1.1zm-7.1 0l-3.8 7h-2.5l-1.9-6.8c-.1-.4-.2-.5-.5-.7-.5-.3-1.4-.6-2.1-.8l.1-.7h3.6c.5 0 .9.3 1 .8l.9 4.8 2.2-5.6h2.4v-.7z" fill="white"/>
</svg>